<mxfile host="app.diagrams.net" agent="Mozilla/5.0 (Windows NT 10.0; Win64; x64) AppleWebKit/537.36 (KHTML, like Gecko) Chrome/141.0.0.0 Safari/537.36" version="28.2.7">
  <diagram name="Seite-1" id="j7DcioLlFK85SgjJhWH4">
    <mxGraphModel dx="1042" dy="527" grid="1" gridSize="10" guides="1" tooltips="1" connect="1" arrows="1" fold="1" page="1" pageScale="1" pageWidth="827" pageHeight="1169" math="0" shadow="0">
      <root>
        <mxCell id="0" />
        <mxCell id="1" parent="0" />
        <mxCell id="xQsCL5i-RF88G79HlwKc-4" style="edgeStyle=orthogonalEdgeStyle;rounded=0;orthogonalLoop=1;jettySize=auto;html=1;" edge="1" parent="1" source="xQsCL5i-RF88G79HlwKc-2">
          <mxGeometry relative="1" as="geometry">
            <mxPoint x="160" y="235" as="targetPoint" />
          </mxGeometry>
        </mxCell>
        <mxCell id="xQsCL5i-RF88G79HlwKc-2" value="" style="ellipse;html=1;shape=startState;fillColor=#000000;strokeColor=#ff0000;" vertex="1" parent="1">
          <mxGeometry x="80" y="220" width="30" height="30" as="geometry" />
        </mxCell>
        <mxCell id="xQsCL5i-RF88G79HlwKc-15" style="edgeStyle=orthogonalEdgeStyle;rounded=0;orthogonalLoop=1;jettySize=auto;html=1;" edge="1" parent="1" source="xQsCL5i-RF88G79HlwKc-5" target="xQsCL5i-RF88G79HlwKc-16">
          <mxGeometry relative="1" as="geometry">
            <mxPoint x="215" y="320" as="targetPoint" />
          </mxGeometry>
        </mxCell>
        <mxCell id="xQsCL5i-RF88G79HlwKc-5" value="Clicking on frog&amp;nbsp;" style="html=1;whiteSpace=wrap;" vertex="1" parent="1">
          <mxGeometry x="160" y="210" width="110" height="50" as="geometry" />
        </mxCell>
        <mxCell id="xQsCL5i-RF88G79HlwKc-8" value="" style="edgeStyle=orthogonalEdgeStyle;rounded=0;orthogonalLoop=1;jettySize=auto;html=1;" edge="1" parent="1" source="xQsCL5i-RF88G79HlwKc-5" target="xQsCL5i-RF88G79HlwKc-6">
          <mxGeometry relative="1" as="geometry">
            <mxPoint x="380" y="235" as="targetPoint" />
            <mxPoint x="270" y="235" as="sourcePoint" />
          </mxGeometry>
        </mxCell>
        <mxCell id="xQsCL5i-RF88G79HlwKc-12" style="edgeStyle=orthogonalEdgeStyle;rounded=0;orthogonalLoop=1;jettySize=auto;html=1;entryX=0.5;entryY=0;entryDx=0;entryDy=0;" edge="1" parent="1" source="xQsCL5i-RF88G79HlwKc-6" target="xQsCL5i-RF88G79HlwKc-11">
          <mxGeometry relative="1" as="geometry" />
        </mxCell>
        <mxCell id="xQsCL5i-RF88G79HlwKc-6" value="Create speechbubble above its head" style="html=1;whiteSpace=wrap;" vertex="1" parent="1">
          <mxGeometry x="350" y="210" width="110" height="50" as="geometry" />
        </mxCell>
        <mxCell id="xQsCL5i-RF88G79HlwKc-9" value="Choose random text (depending on time)" style="html=1;whiteSpace=wrap;" vertex="1" parent="1">
          <mxGeometry x="580" y="320" width="110" height="50" as="geometry" />
        </mxCell>
        <mxCell id="xQsCL5i-RF88G79HlwKc-14" style="edgeStyle=orthogonalEdgeStyle;rounded=0;orthogonalLoop=1;jettySize=auto;html=1;" edge="1" parent="1" source="xQsCL5i-RF88G79HlwKc-11">
          <mxGeometry relative="1" as="geometry">
            <mxPoint x="570" y="345" as="targetPoint" />
          </mxGeometry>
        </mxCell>
        <mxCell id="xQsCL5i-RF88G79HlwKc-11" value="Ceck local time&amp;nbsp;" style="html=1;whiteSpace=wrap;" vertex="1" parent="1">
          <mxGeometry x="350" y="320" width="110" height="50" as="geometry" />
        </mxCell>
        <mxCell id="xQsCL5i-RF88G79HlwKc-16" value="Play a croak sound" style="html=1;whiteSpace=wrap;" vertex="1" parent="1">
          <mxGeometry x="160" y="320" width="110" height="50" as="geometry" />
        </mxCell>
      </root>
    </mxGraphModel>
  </diagram>
</mxfile>
